<svg width="75" height="75" viewBox="0 0 75 75" fill="none" xmlns="http://www.w3.org/2000/svg">
<path d="M23.0468 52.4406L26.9531 47.5594L14.3781 37.5L26.9531 27.4406L23.0468 22.5594L7.42181 35.0594C7.05571 35.3521 6.76015 35.7235 6.55704 36.146C6.35393 36.5684 6.24847 37.0312 6.24847 37.5C6.24847 37.9687 6.35393 38.4315 6.55704 38.854C6.76015 39.2765 7.05571 39.6478 7.42181 39.9406L23.0468 52.4406ZM51.9531 22.5594L48.0468 27.4406L60.6218 37.5L48.0468 47.5594L51.9531 52.4406L67.5781 39.9406C67.9442 39.6478 68.2397 39.2765 68.4428 38.854C68.6459 38.4315 68.7514 37.9687 68.7514 37.5C68.7514 37.0312 68.6459 36.5684 68.4428 36.146C68.2397 35.7235 67.9442 35.3521 67.5781 35.0594L51.9531 22.5594ZM46.7999 10.05L34.2999 66.3L28.1968 64.9437L40.6968 8.69373L46.7999 10.05Z" fill="#00C4F0"/>
</svg>
